Coordinates
version=1
nRows=13
nColumns=40
inDegrees=yes

Units are S.I. units (second, meters, Newtons, ...)
Angles are in degrees.

endheader
time	pelvis_tilt	pelvis_list	pelvis_rotation	pelvis_tx	pelvis_ty	pelvis_tz	hip_flexion_r	hip_adduction_r	hip_rotation_r	knee_angle_r	knee_angle_r_beta	ankle_angle_r	subtalar_angle_r	mtp_angle_r	hip_flexion_l	hip_adduction_l	hip_rotation_l	knee_angle_l	knee_angle_l_beta	ankle_angle_l	subtalar_angle_l	mtp_angle_l	lumbar_extension	lumbar_bending	lumbar_rotation	arm_flex_r	arm_add_r	arm_rot_r	elbow_flex_r	pro_sup_r	wrist_flex_r	wrist_dev_r	arm_flex_l	arm_add_l	arm_rot_l	elbow_flex_l	pro_sup_l	wrist_flex_l	wrist_dev_l
      3.81000000	    -17.34631721	      2.41792408	      1.98940687	      0.93077676	      1.01662206	     -0.36602059	      4.77923438	      1.01429792	     -4.66687670	     23.80564753	      0.41548693	     -1.25522012	      0.00000000	      0.00000000	     57.98420449	      3.62153564	      0.41989102	     88.47822769	      1.54423639	     -0.57131716	      0.00000000	      0.00000000	      3.50823508	     -0.90920409	     12.91994263	    -16.88636139	    -23.20946269	     -4.07411246	    119.95529085	     58.62783240	      0.00000000	      0.00000000	    -45.19082387	    -21.56877234	     -2.01344585	    111.84142712	     56.81258740	      0.00000000	      0.00000000
      3.82000000	    -17.83160608	      3.03629598	      3.05426872	      0.93351239	      1.02347732	     -0.36593490	      1.82240247	      0.37930147	     -6.23000239	     20.52538482	      0.35823555	     -7.49913312	      0.00000000	      0.00000000	     58.70767772	      4.36226915	     -1.01339848	     83.01756043	      1.44892977	      0.02299575	      0.00000000	      0.00000000	      4.29790128	     -2.17409896	     12.39561812	    -17.03836981	    -22.54640487	     -3.79047131	    122.55429299	     59.21314965	      0.00000000	      0.00000000	    -47.35660827	    -21.67490734	     -3.62684056	    114.01725409	     56.87706447	      0.00000000	      0.00000000
      3.83000000	    -18.16524651	      2.21225030	      3.46233610	      0.93385982	      1.02935070	     -0.36522020	      0.25615889	      1.27962912	     -7.00110608	     20.17545502	      0.35212812	     -9.01881318	      0.00000000	      0.00000000	     59.48529804	      3.62296426	     -1.62183656	     77.85496305	      1.35882544	      0.43842711	      0.00000000	      0.00000000	      4.77571927	     -1.63182319	     12.40896002	    -17.08572084	    -22.49801837	     -3.76890725	    123.93723372	     59.34321604	      0.00000000	      0.00000000	    -48.73672023	    -21.66296272	     -3.97652362	    114.96347670	     56.89622936	      0.00000000	      0.00000000
      3.84000000	    -18.77774240	      1.82487981	      4.17511625	      0.93555421	      1.03503999	     -0.36567685	     -1.31955519	      1.62727668	     -8.33057094	     18.93806080	      0.33053151	    -13.15631695	      0.00000000	      0.00000000	     59.62479508	      3.77589338	     -2.39581477	     71.38700512	      1.24593828	      0.92596042	      0.00000000	      0.00000000	      5.76722584	     -1.38588792	     12.01086351	    -17.52438865	    -22.34549921	     -3.51401091	    126.52709897	     59.60738018	      0.00000000	      0.00000000	    -50.08015990	    -21.29114493	     -4.83086479	    116.76874801	     56.92782005	      0.00000000	      0.00000000
      3.85000000	    -18.98078611	      2.72800510	      6.51503366	      0.93857389	      1.04082144	     -0.36837776	     -4.38605832	      0.86645175	    -11.98858242	     15.10344811	      0.26360490	    -23.57140132	      0.00000000	      0.00000000	     58.94748307	      6.74266518	     -2.77817393	     64.60293452	      1.12753391	      0.53762180	      0.00000000	      0.00000000	      6.01251086	     -3.18033064	     10.18011736	    -18.17765285	    -21.76233722	     -2.76999834	    129.05071440	     60.50528956	      0.00000000	      0.00000000	    -51.52594014	    -20.83627201	     -7.15725208	    118.59253920	     56.93821610	      0.00000000	      0.00000000
      3.86000000	    -18.69333466	      1.87249271	      7.34880246	      0.93966205	      1.04523578	     -0.37013787	     -6.17629094	      1.82554733	    -13.27132750	     15.07533425	      0.26311422	    -27.00278259	      0.00000000	      0.00000000	     57.86918307	      7.08835932	     -2.78420060	     58.09396718	      1.01393100	     -0.02069103	      0.00000000	      0.00000000	      5.91163222	     -2.30193569	      9.33404702	    -18.35284603	    -22.21962844	     -2.32823984	    130.44193563	     61.10161934	      0.00000000	      0.00000000	    -52.23957599	    -19.97627462	     -8.01406180	    119.83002691	     56.96434947	      0.00000000	      0.00000000
      3.87000000	    -18.59288144	      0.49587989	      8.16360584	      0.94135182	      1.04681451	     -0.37087762	     -7.31680643	      3.51202535	    -13.14832468	     16.22895531	      0.28324870	    -28.21712533	      0.00000000	      0.00000000	     57.43945372	      6.53633786	     -3.90958521	     53.12756077	      0.92725086	     -0.10488594	      0.00000000	      0.00000000	      6.32558122	     -1.04892585	      8.55585762	    -19.45566388	    -22.59554632	     -2.22845633	    131.36672292	     61.23554748	      0.00000000	      0.00000000	    -53.37492002	    -19.89759054	     -8.50074570	    120.74230351	     56.97539370	      0.00000000	      0.00000000
      3.88000000	    -18.58285331	     -0.48779267	      8.83693507	      0.94104314	      1.04877509	     -0.37211013	     -7.72065097	      4.65781142	    -12.20693015	     18.33677043	      0.32003702	    -30.24076669	      0.00000000	      0.00000000	     56.18107706	      6.83760938	     -3.97481730	     46.28289801	      0.80778896	     -0.69969528	      0.00000000	      0.00000000	      6.16806170	     -0.11744843	      8.06835428	    -20.18211542	    -23.07901922	     -1.94825148	    132.64143077	     61.44353009	      0.00000000	      0.00000000	    -53.39486339	    -19.00594786	     -9.18878599	    122.25274723	     56.99756620	      0.00000000	      0.00000000
      3.89000000	    -18.26298213	     -0.94190049	      9.56880703	      0.94103526	      1.04986520	     -0.37301894	     -8.18610616	      5.45688737	    -10.16581013	     21.26891078	      0.37121252	    -31.26923747	      0.00000000	      0.00000000	     54.78039939	      7.68753215	     -3.49119577	     40.69179467	      0.71020580	     -1.47217122	      0.00000000	      0.00000000	      5.75524040	      0.22383281	      7.37797880	    -20.98850396	    -23.33927127	     -1.63760899	    132.91047302	     61.61172256	      0.00000000	      0.00000000	    -53.25044744	    -18.48679359	     -9.85060954	    123.07054730	     56.99278036	      0.00000000	      0.00000000
      3.90000000	    -17.51305662	      0.90346050	      8.97053434	      0.93951057	      1.05314073	     -0.37269894	     -8.16724274	      3.49036596	     -7.40782772	     27.16450793	      0.47411010	    -28.62171656	      0.00000000	      0.00000000	     50.86451544	      9.77874504	     -2.15617677	     31.41364736	      0.54827158	     -4.86677782	      0.00000000	      0.00000000	      4.08429764	     -1.86526124	      7.51819088	    -19.85298089	    -23.53238697	     -0.43943966	    131.63806616	     62.64174372	      0.00000000	      0.00000000	    -52.37695931	    -17.24852339	    -11.09651624	    123.19778473	     56.98988539	      0.00000000	      0.00000000
      3.91000000	    -17.12114502	      0.05271880	     10.05093896	      0.94153005	      1.05184623	     -0.37349001	     -8.74990808	      5.09962770	     -5.68894318	     29.99008292	      0.52342569	    -28.97739041	      0.00000000	      0.00000000	     50.06622936	     10.02279009	     -2.39356766	     29.15498546	      0.50885049	     -4.24984776	      0.00000000	      0.00000000	      4.01142884	     -1.14859989	      6.29407299	    -21.38205745	    -23.30074389	     -0.23360446	    130.82784832	     62.69260557	      0.00000000	      0.00000000	    -52.23591981	    -17.04359920	    -11.31239254	    123.54727095	     56.98023808	      0.00000000	      0.00000000
      3.92000000	    -16.31497511	     -0.15270031	      8.78564839	      0.93928544	      1.05232313	     -0.37160676	     -7.51430975	      5.51511702	     -2.26035985	     37.29669786	      0.65095018	    -27.16175682	      0.00000000	      0.00000000	     46.62175738	      9.74284938	      1.33826457	     22.22638755	      0.38792364	     -4.32818604	      0.00000000	      0.00000000	      2.54919058	     -0.96475097	      6.98945447	    -20.94261869	    -23.77094873	     -0.37554023	    128.61775206	     63.01771445	      0.00000000	      0.00000000	    -50.90241688	    -15.82599237	    -11.73244810	    123.92311991	     56.96128530	      0.00000000	      0.00000000
      3.93000000	    -15.65342590	     -0.28055116	      8.77028466	      0.93954086	      1.05059706	     -0.37070522	     -6.81746862	      5.86696699	     -1.45098361	     43.20215250	      0.75401980	    -26.56931551	      0.00000000	      0.00000000	     44.56180858	      9.71209013	      1.94610034	     19.03776695	      0.33227172	     -4.50395052	      0.00000000	      0.00000000	      1.64921520	     -1.03800430	      6.56573218	    -21.51562431	    -23.63571692	     -0.43587488	    126.37871641	     63.21124512	      0.00000000	      0.00000000	    -49.92129146	    -15.40305286	    -11.90645345	    123.93596431	     56.93515065	      0.00000000	      0.00000000
